<?xml version="1.0" encoding="UTF-8" standalone="no"?>
<svg width="37px" height="35px" viewBox="0 0 37 35" version="1.1" xmlns="http://www.w3.org/2000/svg" xmlns:xlink="http://www.w3.org/1999/xlink" xmlns:sketch="http://www.bohemiancoding.com/sketch/ns">
    <!-- Generator: Sketch 3.4.4 (17249) - http://www.bohemiancoding.com/sketch -->
    <title>Rectangle 57 Copy 2 + LinkedIN</title>
    <desc>Created with Sketch.</desc>
    <defs></defs>
    <g id="Page-1" stroke="none" stroke-width="1" fill="none" fill-rule="evenodd" sketch:type="MSPage">
        <g id="Group" sketch:type="MSLayerGroup" transform="translate(-100.000000, 0.000000)">
            <g id="Rectangle-57-Copy-2-+-LinkedIN" transform="translate(100.000000, 0.000000)" sketch:type="MSShapeGroup">
                <rect id="Rectangle-57-Copy-2" fill="#FFFFFF" x="3" y="0" width="34" height="35"></rect>
                <path d="M0.947368421,0 L0.947368421,35 L37,35 L37,0 L0.947368421,0 Z M14.3791106,25.7465563 L10.2998481,25.7465563 L10.2998481,13.8307251 L14.3791106,13.8307251 L14.3791106,25.7465563 L14.3791106,25.7465563 Z M12.3395608,12.2043184 L12.3134921,12.2043184 C10.9439894,12.2043184 10.0586312,11.2888171 10.0586312,10.1446777 C10.0586312,8.97633804 10.9709542,8.08646067 12.3664442,8.08646067 C13.7619342,8.08646067 14.6213051,8.97633804 14.6477811,10.1446777 C14.6477811,11.2888171 13.7619342,12.2043184 12.3395608,12.2043184 Z M29.0903287,25.7465563 L25.0112291,25.7465563 L25.0112291,19.3715799 C25.0112291,17.7703226 24.420936,16.6776683 22.9442258,16.6776683 C21.8172434,16.6776683 21.1459744,17.4142767 20.8511537,18.1257357 C20.7432945,18.3807095 20.7168184,18.7359645 20.7168184,19.0920894 L20.7168184,25.7468727 L16.6370672,25.7468727 C16.6370672,25.7468727 16.6908339,14.9491614 16.6370672,13.8310414 L20.7168184,13.8310414 L20.7168184,15.518819 C21.2582327,14.7074741 22.2279068,13.5509183 24.3937268,13.5509183 C27.0780696,13.5509183 29.0904916,15.2543549 29.0904916,18.9143828 L29.0903287,25.7465563 Z" id="LinkedIN" fill="#007BB6"></path>
            </g>
        </g>
    </g>
</svg>