<?xml version="1.0" encoding="UTF-8" standalone="no"?>
<svg width="37px" height="35px" viewBox="0 0 37 35" version="1.1" xmlns="http://www.w3.org/2000/svg" xmlns:xlink="http://www.w3.org/1999/xlink" xmlns:sketch="http://www.bohemiancoding.com/sketch/ns">
    <!-- Generator: Sketch 3.4.4 (17249) - http://www.bohemiancoding.com/sketch -->
    <title>Rectangle 57 + Twitter</title>
    <desc>Created with Sketch.</desc>
    <defs></defs>
    <g id="Page-1" stroke="none" stroke-width="1" fill="none" fill-rule="evenodd" sketch:type="MSPage">
        <g id="Group" sketch:type="MSLayerGroup">
            <g id="Rectangle-57-+-Twitter" sketch:type="MSShapeGroup">
                <rect id="Rectangle-57" fill="#FFFFFF" x="0" y="0" width="36" height="35"></rect>
                <path d="M0,0 L0,35 L36.0526316,35 L36.0526316,0 L0,0 Z M20.5302937,10.66513 C18.9564387,11.2212377 17.9617623,12.6547597 18.0750799,14.2242192 L18.1128524,14.8297587 L17.4833104,14.755611 C15.1917774,14.4713782 13.1898338,13.5074582 11.4900703,11.8885669 L10.6590748,11.0853003 L10.4450306,11.6784818 C9.9917603,13.0007823 10.2813496,14.3972305 11.2256627,15.3364346 C11.7292963,15.8554684 11.6159787,15.9296161 10.7472107,15.6206674 C10.4450306,15.5218038 10.1806229,15.4476561 10.1554412,15.48473 C10.0673053,15.5712356 10.3694855,16.6958089 10.6087115,17.1406951 C10.9360733,17.7585925 11.6033879,18.364132 12.3336566,18.7225125 L12.9506078,19.0067453 L12.2203391,19.0191033 C11.515252,19.0191033 11.4900703,19.0314612 11.5656154,19.2909781 C11.8174322,20.0942448 12.8121086,20.9469432 13.9201025,21.3176817 L14.7007346,21.5771986 L14.0208292,21.972653 C13.013562,22.5411186 11.830023,22.8624253 10.646484,22.8871412 C10.0798962,22.8994991 9.61403509,22.9489309 9.61403509,22.9860048 C9.61403509,23.1095842 11.1501176,23.8016294 12.0440673,24.0735042 C14.7259163,24.8767709 17.9113989,24.5307483 20.3036586,23.159016 C22.0034221,22.1827381 23.7031855,20.2425402 24.4964085,18.364132 C24.924497,17.3631381 25.3525856,15.5341618 25.3525856,14.6567474 C25.3525856,14.0882818 25.3903581,14.0141341 26.0954452,13.3344469 C26.5109429,12.9389926 26.901259,12.5064644 26.976804,12.3828849 C27.1027124,12.1480838 27.0901216,12.1480838 26.4479887,12.358169 C25.3777673,12.7289074 25.2266772,12.6794756 25.7554925,12.1233679 C26.1458086,11.7279136 26.6116697,11.0111526 26.6116697,10.8010674 C26.6116697,10.7639936 26.4228071,10.8257833 26.2087628,10.9370049 C25.9821276,11.0605844 25.478494,11.2459536 25.1007688,11.3571751 L24.4208634,11.5672603 L23.8039122,11.159448 C23.4639596,10.9370049 22.9855076,10.6898459 22.7336908,10.6156982 C22.0915579,10.4426869 21.1094724,10.4674028 20.5302937,10.66513 Z" id="Twitter" fill="#4099FF"></path>
            </g>
        </g>
    </g>
</svg>