<?xml version="1.0" encoding="UTF-8" standalone="no"?>
<svg width="37px" height="35px" viewBox="0 0 37 35" version="1.1" xmlns="http://www.w3.org/2000/svg" xmlns:xlink="http://www.w3.org/1999/xlink" xmlns:sketch="http://www.bohemiancoding.com/sketch/ns">
    <!-- Generator: Sketch 3.4.4 (17249) - http://www.bohemiancoding.com/sketch -->
    <title>Rectangle 57 Copy + YouTube</title>
    <desc>Created with Sketch.</desc>
    <defs></defs>
    <g id="Page-1" stroke="none" stroke-width="1" fill="none" fill-rule="evenodd" sketch:type="MSPage">
        <g id="Group" sketch:type="MSLayerGroup" transform="translate(-50.000000, 0.000000)">
            <g id="Rectangle-57-Copy-+-YouTube" transform="translate(50.000000, 0.000000)" sketch:type="MSShapeGroup">
                <rect id="Rectangle-57-Copy" fill="#FFFFFF" x="1" y="0" width="35" height="35"></rect>
                <path d="M0.473684211,0 L0.473684211,35 L36.5263158,35 L36.5263158,0 L0.473684211,0 Z M13.249387,7 L14.1129415,10.0906322 L14.1964948,10.0906322 L15.0175892,7 L16.369392,7 L14.8223753,11.5239004 L14.8223753,14.7318076 L13.4928704,14.7318076 L13.4928704,11.6684497 L11.91057,7 L13.249387,7 Z M16.9423469,9.27678874 C17.2600287,9.01496436 17.6882178,8.88382031 18.2235395,8.88382031 C18.7117451,8.88382031 19.1129802,9.02191992 19.4259204,9.29828776 C19.7364686,9.57402327 19.8929814,9.92985319 19.8929814,10.3646815 L19.8929814,13.3113123 C19.8929814,13.7989186 19.7400567,14.1809268 19.4353608,14.4590229 C19.1270766,14.7364868 18.707089,14.8758511 18.1694606,14.8758511 C17.6541728,14.8758511 17.2400801,14.7318498 16.9294466,14.4463343 C16.6212051,14.159512 16.4647777,13.7734992 16.4647777,13.2888016 L16.4646923,10.332728 C16.4646923,9.88980599 16.6235118,9.53802295 16.9423469,9.27678874 Z M17.807012,13.7594194 C17.8905653,13.8453312 18.0105983,13.8876969 18.1670258,13.8876969 C18.3270841,13.8876969 18.4529265,13.843645 18.5482268,13.7571009 C18.6424164,13.6688285 18.6894899,13.548729 18.6894899,13.3965918 L18.6894899,10.2891398 C18.6894899,10.1644033 18.6411777,10.0639481 18.5447241,9.98672021 C18.4482705,9.91012467 18.3223853,9.87235384 18.1670258,9.87235384 C18.0223453,9.87235384 17.9059005,9.91012467 17.815299,9.98672021 C17.7258936,10.0639481 17.6800162,10.164319 17.6800162,10.2891398 L17.6800162,13.396634 C17.6799735,13.5527759 17.7235015,13.6729175 17.807012,13.7594194 Z M24.2200661,14.7318498 L23.0388725,14.7318498 L23.0388725,14.1020127 C22.8235392,14.333612 22.5965443,14.5118853 22.359981,14.6325749 C22.1246991,14.7538968 21.8964227,14.814347 21.6751946,14.814347 C21.3999729,14.814347 21.1963866,14.7289832 21.0576437,14.5594782 C20.9199688,14.389383 20.8505547,14.1351465 20.8505547,13.7949139 L20.8505547,9.0277373 L22.0293561,9.0277373 L22.0293561,13.4006808 C22.0293561,13.5359561 22.056481,13.6334604 22.1058612,13.6938263 C22.154088,13.7542765 22.2352491,13.7849653 22.3458846,13.7849653 C22.4317445,13.7849653 22.54238,13.7443701 22.6752706,13.6648237 C22.807008,13.5847293 22.9293904,13.4824614 23.0387871,13.3571348 L23.0387871,9.0277373 L24.2200661,9.0277373 L24.2200661,14.7318498 Z M18.49654,16.9040942 C18.49654,16.9034619 11.238812,16.9145908 10.3753003,17.749849 C9.51174576,18.5863717 9.50939636,22.7161655 9.50939636,22.7399409 C9.50939636,22.771262 9.51178848,26.8940581 10.3753003,27.730623 C11.2387266,28.5653332 18.49654,28.5833333 18.49654,28.5833333 C18.49654,28.5833333 25.7553785,28.5653332 26.6165409,27.7305809 C27.4836409,26.8911494 27.4906464,22.7399409 27.4906464,22.7399409 C27.4906464,22.7160812 27.4812915,18.5863717 26.6165409,17.749849 C25.7553785,16.9145908 18.49654,16.9034619 18.49654,16.9040942 Z M13.6422923,20.1827796 L13.6422923,26.1822718 L12.4599027,26.1822718 L12.4599027,20.1827796 L11.2375306,20.1827796 L11.2375306,19.1633887 L14.8646218,19.1633887 L14.8646645,20.1827796 L13.6422923,20.1827796 Z M17.2728863,26.182314 L17.2728863,25.6128428 C17.0776297,25.8241234 16.8775889,25.9837642 16.6670398,26.0929455 C16.4576013,26.2044453 16.2552111,26.2577713 16.0575624,26.2577713 C15.8139935,26.2577713 15.6339867,26.182314 15.5093402,26.0268044 C15.3881538,25.8717163 15.3257879,25.6425199 15.3257879,25.3330604 L15.3257879,21.0035786 L16.3740908,21.0035786 L16.3740908,24.97546 C16.3740908,25.0985103 16.3964315,25.1867406 16.4388488,25.2412891 C16.4847262,25.2970179 16.5564898,25.3237441 16.6541394,25.3237441 C16.7306445,25.3237441 16.8294475,25.2871536 16.9470884,25.214605 C17.0659254,25.141424 17.1729727,25.0496948 17.272929,24.9376891 L17.272929,21.0036629 L18.3211892,21.0036629 L18.3211465,26.182314 L17.2728863,26.182314 Z M21.8788663,25.9553517 C21.715348,26.1514987 21.4765634,26.2478228 21.1659725,26.2478228 C20.9600795,26.2478228 20.7776805,26.2113587 20.6176649,26.1358592 C20.4577348,26.060444 20.305878,25.9443071 20.1694846,25.7852987 L20.1694846,26.182314 L19.1095201,26.182314 L19.1095201,19.1633887 L20.1694846,19.1633887 L20.1694846,21.4232733 C20.3118156,21.266499 20.4612375,21.1451771 20.6189037,21.0639867 C20.7788339,20.9815737 20.940131,20.9408942 21.1023678,20.9408942 C21.435342,20.9408942 21.6883085,21.0512137 21.8624205,21.2706724 C22.0388819,21.4918172 22.1259806,21.8151457 22.1259806,22.2389294 L22.1259806,25.1124214 C22.1258952,25.4786636 22.0434525,25.7596685 21.8788663,25.9553517 Z M23.7564651,23.716924 L23.7564651,24.6927267 C23.7564651,24.9655957 23.790681,25.1542391 23.8588136,25.2604696 C23.9293811,25.3655197 24.047022,25.417286 24.2141285,25.417286 C24.3881551,25.417286 24.5093842,25.3725174 24.5787983,25.2831489 C24.6470591,25.1937383 24.6834962,24.9975492 24.6834962,24.6927267 L24.6834962,24.4564904 L25.7623413,24.4564904 L25.7623413,24.7224038 C25.7623413,25.2535983 25.6316719,25.6535223 25.3670438,25.9234404 C25.1059186,26.190492 24.7128851,26.3233644 24.1905918,26.3233644 C23.7211387,26.3233644 23.3505313,26.1822718 23.081119,25.896672 C22.8116214,25.6128849 22.6751425,25.2215184 22.6751425,24.7223617 L22.6751425,22.3968418 C22.6751425,21.9492827 22.8245644,21.5812279 23.1210589,21.2990848 C23.4174679,21.0163937 23.7986689,20.8753433 24.2693181,20.8753433 C24.7492794,20.8753433 25.1187335,21.0064873 25.376356,21.2683117 C25.6339785,21.5295037 25.7622986,21.9056945 25.7622986,22.3968418 L25.7622986,23.7168818 L23.7564651,23.716924 Z M20.6082246,21.7628735 C20.5329583,21.7628735 20.4588881,21.7785552 20.3858858,21.8133752 C20.3129689,21.8470991 20.2412054,21.8999193 20.1694846,21.9713298 L20.1694846,25.197743 C20.2541485,25.2812941 20.3377444,25.3445687 20.4188629,25.3806112 C20.4989561,25.4171174 20.5824666,25.4369302 20.6718293,25.4369302 C20.8000639,25.4369302 20.8942536,25.4003397 20.9542274,25.3260205 C21.0141157,25.2534297 21.0458967,25.1361546 21.0458967,24.9696004 L21.0458967,22.2957542 C21.0458967,22.1209798 21.0093742,21.9880653 20.9353467,21.8975586 C20.8588417,21.8081479 20.7493596,21.7628735 20.6082246,21.7628735 Z M24.2247649,21.7814639 C24.0577438,21.7814639 23.9377535,21.8272863 23.8647512,21.9242848 C23.7918343,22.0147493 23.7565506,22.1715236 23.7565506,22.3881157 L23.7565506,22.9111322 L24.6836243,22.9111322 L24.6836243,22.3881157 C24.6836243,22.1715658 24.6459912,22.0148758 24.5729889,21.9242848 C24.5024214,21.8272863 24.3836272,21.7814639 24.2247649,21.7814639 Z" id="YouTube" fill="#CD332D"></path>
            </g>
        </g>
    </g>
</svg>